<svg width="24" height="24" viewBox="0 0 24 24" fill="none" xmlns="http://www.w3.org/2000/svg">
<g opacity="0.3">
<path d="M12.0007 2.25C10.3074 2.24987 8.64328 2.69074 7.17214 3.52921C5.70099 4.36768 4.47358 5.57483 3.61074 7.03182C2.7479 8.4888 2.27939 10.1454 2.25134 11.8385C2.22328 13.5315 2.63665 15.2027 3.45074 16.6875L2.65387 19.4906C2.57892 19.7486 2.57416 20.0218 2.64008 20.2822C2.706 20.5426 2.84021 20.7807 3.02887 20.9719C3.2175 21.1614 3.45394 21.2964 3.71308 21.3624C3.97222 21.4284 4.2444 21.4231 4.50074 21.3469L7.31324 20.55C8.61663 21.2644 10.0661 21.6713 11.5508 21.7397C13.0356 21.8081 14.5163 21.5361 15.8799 20.9445C17.2434 20.353 18.4536 19.4575 19.4181 18.3266C20.3825 17.1956 21.0756 15.8592 21.4445 14.4193C21.8133 12.9795 21.848 11.4744 21.546 10.0191C21.2441 8.56374 20.6133 7.19672 19.7021 6.02249C18.7909 4.84826 17.6232 3.8979 16.2885 3.24406C14.9537 2.59022 13.4871 2.25021 12.0007 2.25ZM7.50074 13.125C7.27824 13.125 7.06073 13.059 6.87572 12.9354C6.69072 12.8118 6.54652 12.6361 6.46138 12.4305C6.37623 12.225 6.35395 11.9988 6.39736 11.7805C6.44077 11.5623 6.54791 11.3618 6.70525 11.2045C6.86258 11.0472 7.06303 10.94 7.28126 10.8966C7.49949 10.8532 7.72569 10.8755 7.93126 10.9606C8.13683 11.0458 8.31253 11.19 8.43614 11.375C8.55976 11.56 8.62574 11.7775 8.62574 12C8.62574 12.2984 8.50721 12.5845 8.29624 12.7955C8.08526 13.0065 7.79911 13.125 7.50074 13.125ZM12.0007 13.125C11.7782 13.125 11.5607 13.059 11.3757 12.9354C11.1907 12.8118 11.0465 12.6361 10.9614 12.4305C10.8762 12.225 10.8539 11.9988 10.8974 11.7805C10.9408 11.5623 11.0479 11.3618 11.2052 11.2045C11.3626 11.0472 11.563 10.94 11.7813 10.8966C11.9995 10.8532 12.2257 10.8755 12.4313 10.9606C12.6368 11.0458 12.8125 11.19 12.9361 11.375C13.0598 11.56 13.1257 11.7775 13.1257 12C13.1257 12.2984 13.0072 12.5845 12.7962 12.7955C12.5853 13.0065 12.2991 13.125 12.0007 13.125ZM16.5007 13.125C16.2782 13.125 16.0607 13.059 15.8757 12.9354C15.6907 12.8118 15.5465 12.6361 15.4614 12.4305C15.3762 12.225 15.3539 11.9988 15.3974 11.7805C15.4408 11.5623 15.5479 11.3618 15.7052 11.2045C15.8626 11.0472 16.063 10.94 16.2813 10.8966C16.4995 10.8532 16.7257 10.8755 16.9313 10.9606C17.1368 11.0458 17.3125 11.19 17.4361 11.375C17.5598 11.56 17.6257 11.7775 17.6257 12C17.6257 12.2984 17.5072 12.5845 17.2962 12.7955C17.0853 13.0065 16.7991 13.125 16.5007 13.125Z" fill="#6F6F72"/>
</g>
</svg>
