<?xml version="1.0" encoding="UTF-8"?>
<svg width="20px" height="20px" viewBox="0 0 20 20" version="1.1" xmlns="http://www.w3.org/2000/svg" xmlns:xlink="http://www.w3.org/1999/xlink">
    <!-- Generator: Sketch 54.1 (76490) - https://sketchapp.com -->
    <title>arrow-circle-down</title>
    <desc>Created with Sketch.</desc>
    <g id="Page-1" stroke="none" stroke-width="1" fill="none" fill-rule="evenodd">
        <g id="Artboard" transform="translate(-467.000000, -398.000000)" fill="#454DEC" fill-rule="nonzero">
            <g id="arrow-circle-down" transform="translate(477.000000, 408.000000) rotate(-90.000000) translate(-477.000000, -408.000000) translate(467.000000, 398.000000)">
                <path d="M10,20 C4.477,20 0,15.523 0,10 C0,4.477 4.477,0 10,0 C15.523,0 20,4.477 20,10 C20,15.523 15.523,20 10,20 Z M10,18 C14.418278,18 18,14.418278 18,10 C18,5.581722 14.418278,2 10,2 C5.581722,2 2,5.581722 2,10 C2,14.418278 5.581722,18 10,18 Z M9,11.586 L9,6 C9,5.44771525 9.44771525,5 10,5 C10.5522847,5 11,5.44771525 11,6 L11,11.586 L13.536,9.05 C13.9283789,8.67102779 14.5520848,8.67644763 14.9378186,9.06218142 C15.3235524,9.44791522 15.3289722,10.0716211 14.95,10.464 L10.707,14.707 C10.5198649,14.8952092 10.2654096,15.0010349 10,15.0010349 C9.73459037,15.0010349 9.48013513,14.8952092 9.293,14.707 L5.05,10.464 C4.67102779,10.0716211 4.67644763,9.44791522 5.06218142,9.06218142 C5.44791522,8.67644763 6.07162111,8.67102779 6.464,9.05 L9,11.586 Z" id="Shape"></path>
            </g>
        </g>
    </g>
</svg>